<svg xmlns="http://www.w3.org/2000/svg" viewBox="0 0 64 64" fill="none">
  <path fill="#1d1d1f" d="M44.2 34.5c-.1-3.2 2.6-4.7 2.7-4.8-1.5-2.2-3.8-2.5-4.6-2.5-2-.2-3.9 1.2-4.9 1.2-1 0-2.6-1.2-4.3-1.1-2.2 0-4.2 1.3-5.3 3.3-2.3 4--.6 9.9 1.6 13.1 1.1 1.6 2.4 3.3 4.1 3.2 1.6-.1 2.2-1 4.1-1 1.9 0 2.4 1 4.1.9 1.7 0 2.8-1.5 3.8-3.1 1.2-1.8 1.7-3.5 1.7-3.6-.1 0-3.3-1.3-3.3-5z"/>
  <path fill="#1d1d1f" d="M41.2 18.8c.9-1.1 1.5-2.6 1.3-4.1-1.3.1-2.8.8-3.7 1.9-.8.9-1.5 2.4-1.3 3.8 1.4.1 2.9-.7 3.7-1.6z"/>
</svg>
